<svg xmlns="http://www.w3.org/2000/svg" viewBox="0 0 512 512">
  <rect width="512" height="512" rx="104" fill="#059669"/>
  <path d="M144 168c0-22.1 17.9-40 40-40h144c22.1 0 40 17.9 40 40v176c0 22.1-17.9 40-40 40H184c-22.1 0-40-17.9-40-40V168Z" fill="#fff"/>
  <path d="M184 184h144v36H184v-36Zm0 76h144v28H184v-28Zm0 60h92v28h-92v-28Z" fill="#047857"/>
  <path d="M330 316c-24 0-43.5-19.5-43.5-43.5S306 229 330 229s43.5 19.5 43.5 43.5S354 316 330 316Zm0 32c41.7 0 75.5-33.8 75.5-75.5S371.7 197 330 197s-75.5 33.8-75.5 75.5S288.3 348 330 348Z" fill="#10b981" opacity=".32"/>
</svg>
